<svg width="311" height="247" viewBox="0 0 311 247" fill="none" xmlns="http://www.w3.org/2000/svg">
<path fill-rule="evenodd" clip-rule="evenodd" d="M107.834 53.1519C107.834 79.0534 128.825 100.051 154.719 100.051C180.612 100.051 201.603 79.0534 201.603 53.1519C201.603 27.2504 180.612 6.25316 154.719 6.25316C128.825 6.25316 107.834 27.2504 107.834 53.1519ZM154.719 0C125.373 0 101.583 23.7969 101.583 53.1519C101.583 82.5069 125.373 106.304 154.719 106.304H131.276C114.877 106.304 101.583 119.602 101.583 136.006V136.214L3.64717 119.636L0 119.018V122.718V226.677V230.349L3.62408 229.764L101.583 213.935V217.297C101.583 233.702 114.877 247 131.276 247H281.307C297.706 247 311 233.702 311 217.297V136.006C311 119.602 297.706 106.304 281.307 106.304H257.864C287.21 106.304 311 82.5069 311 53.1519C311 23.7969 287.21 0 257.864 0C232.947 0 212.036 17.1562 206.291 40.3039C200.547 17.1562 179.636 0 154.719 0ZM206.291 65.9999C200.547 89.1476 179.636 106.304 154.719 106.304H257.864C232.947 106.304 212.036 89.1476 206.291 65.9999ZM107.834 136.006C107.834 123.056 118.33 112.557 131.276 112.557H281.307C294.253 112.557 304.749 123.056 304.749 136.006V217.297C304.749 230.248 294.253 240.747 281.307 240.747H131.276C118.33 240.747 107.834 230.248 107.834 217.297V212.925V210.263V139.915V137.273V136.006ZM101.583 142.556L6.25126 126.419V223.005L101.583 207.601V142.556ZM257.864 100.051C231.971 100.051 210.98 79.0534 210.98 53.1519C210.98 27.2504 231.971 6.25316 257.864 6.25316C283.758 6.25316 304.749 27.2504 304.749 53.1519C304.749 79.0534 283.758 100.051 257.864 100.051Z" fill="url(#paint0_radial_4251_5357)"/>
<defs>
<radialGradient id="paint0_radial_4251_5357" cx="0" cy="0" r="1" gradientUnits="userSpaceOnUse" gradientTransform="translate(150 153) rotate(36.1657) scale(186.586 171.115)">
<stop/>
<stop offset="1" stop-opacity="0"/>
</radialGradient>
</defs>
</svg>
