<svg width="309" height="356" viewBox="0 0 309 356" fill="none" xmlns="http://www.w3.org/2000/svg">
<path d="M37.7465 105.924C31.9248 102.039 35.3208 91.3544 37.7465 86.4979C34.7143 84.6766 27.3158 79.5771 21.9793 73.7493C13.4893 71.321 4.9994 62.215 3.18012 54.3232C1.7247 48.0097 9.44653 41.5748 13.4894 39.1465C13.2872 38.7418 12.034 36.4754 8.63798 30.6476C4.393 23.3628 14.0958 18.5063 17.7344 19.1133C20.6452 19.599 28.6501 18.1016 32.2886 17.2921C32.4908 15.6733 34.2292 11.95 39.5657 10.0073C44.9023 8.06474 58.7693 11.6262 65.0357 13.6497C69.6849 12.638 81.1666 10.1288 89.8992 8.18615C100.815 5.75788 106.879 3.32995 122.04 5.75808C135.381 0.901421 156 3.93689 160.851 3.93689C165.702 3.93689 185.715 3.32982 191.779 5.75808C196.63 7.7007 201.077 16.6853 202.695 20.9347C203.503 19.923 206.09 17.8994 209.972 17.8994C229.984 19.1135 248.783 64.6435 251.815 75.5707C263.337 82.2484 262.731 105.924 262.731 111.388C273.646 127.778 249.389 160.56 248.783 163.595C248.298 166.024 253.837 176.748 256.666 181.807C256.464 182.01 255.817 183.021 254.847 185.45C256.788 186.421 260.911 197.996 262.731 203.662C262.326 203.864 261.033 204.876 259.092 207.304C261.033 212.646 255.049 226.123 251.815 232.194C249.389 239.074 244.417 253.563 243.932 256.476C243.325 260.119 234.229 269.832 230.59 274.081C231.197 279.545 241.506 301.399 253.028 314.755C262.246 325.439 292.85 344.703 307 353C210.78 342.275 18.5835 320.34 19.5538 318.397C20.7666 315.969 25.0116 315.969 30.4694 311.112C35.9273 306.256 47.4494 300.792 58.3651 294.115C67.0976 288.772 91.1121 281.366 102.028 278.331L106.273 263.154C104.858 261.333 99.117 257.691 87.4736 257.691C63.2165 255.869 65.6422 249.192 60.1844 241.3C54.7265 233.408 60.7908 227.944 62.6101 224.909C62.6101 224.302 60.1844 220.66 55.3329 218.231C51.4518 216.289 54.5244 212.161 56.5458 210.339C51.6944 208.518 48.0558 204.269 49.8751 201.841C51.6944 199.412 52.3008 196.377 52.9072 194.556C53.5137 192.735 52.9072 190.913 43.2044 190.913C33.5016 190.913 32.2887 185.45 31.6823 183.629C31.0759 181.807 35.9273 168.452 37.7465 161.774C39.5657 155.096 44.4172 137.491 45.0237 133.849C45.6301 130.207 42.598 128.993 37.7465 123.529C33.8653 119.158 37.7465 111.59 40.1723 108.352C40.1723 107.543 39.6871 105.924 37.7465 105.924Z" stroke="url(#paint0_radial_4251_5436)" stroke-width="5"/>
<defs>
<radialGradient id="paint0_radial_4251_5436" cx="0" cy="0" r="1" gradientUnits="userSpaceOnUse" gradientTransform="translate(125.163 153.726) rotate(59.5263) scale(173.2 166.267)">
<stop/>
<stop offset="1" stop-opacity="0"/>
</radialGradient>
</defs>
</svg>
