<svg width="100" height="20" viewBox="0 0 100 20" fill="none" xmlns="http://www.w3.org/2000/svg">
<path d="M90.1467 15.0001V4.46007H92.1067L92.2067 5.94007C92.4734 5.5534 92.7934 5.24673 93.1667 5.02007C93.5401 4.78007 93.9401 4.60673 94.3667 4.50007C94.7934 4.38007 95.2067 4.32007 95.6067 4.32007C96.6201 4.32007 97.4134 4.54007 97.9867 4.98007C98.5734 5.40674 98.9867 5.98673 99.2267 6.72007C99.4801 7.44007 99.6067 8.26007 99.6067 9.18007V15.0001H97.5267V9.60007C97.5267 9.1734 97.5001 8.7534 97.4467 8.34007C97.3934 7.92674 97.2801 7.56007 97.1067 7.24007C96.9467 6.90674 96.7134 6.64674 96.4067 6.46007C96.1001 6.26007 95.6867 6.16007 95.1667 6.16007C94.5267 6.16007 93.9867 6.3334 93.5467 6.68007C93.1067 7.02674 92.7734 7.4934 92.5467 8.08007C92.3201 8.66674 92.2067 9.32673 92.2067 10.0601V15.0001H90.1467Z" fill="#A6D700"/>
<path d="M82.6601 19.7801C81.9135 19.7801 81.2201 19.6601 80.5801 19.4201C79.9401 19.1934 79.3935 18.8267 78.9401 18.3201C78.5001 17.8267 78.2001 17.1934 78.0401 16.4201H80.1801C80.2735 16.7801 80.4535 17.0667 80.7201 17.2801C80.9868 17.5067 81.3001 17.6667 81.6601 17.7601C82.0201 17.8534 82.3801 17.9001 82.7401 17.9001C83.4201 17.9001 83.9668 17.7601 84.3801 17.4801C84.7935 17.2001 85.0868 16.8201 85.2601 16.3401C85.4468 15.8734 85.5401 15.3401 85.5401 14.7401V13.5201C85.3135 13.9067 85.0135 14.2201 84.6401 14.4601C84.2668 14.7001 83.8668 14.8734 83.4401 14.9801C83.0268 15.0734 82.6001 15.1201 82.1601 15.1201C81.0801 15.1201 80.2001 14.8801 79.5201 14.4001C78.8401 13.9201 78.3335 13.2801 78.0001 12.4801C77.6801 11.6667 77.5201 10.7667 77.5201 9.78007C77.5201 8.76674 77.6868 7.84673 78.0201 7.02007C78.3668 6.1934 78.8935 5.54007 79.6001 5.06007C80.3068 4.56673 81.2001 4.32007 82.2801 4.32007C82.9068 4.32007 83.5135 4.4334 84.1001 4.66007C84.6868 4.8734 85.1735 5.22007 85.5601 5.70007L85.6801 4.46007H87.6201V14.5001C87.6201 15.5801 87.4468 16.5134 87.1001 17.3001C86.7535 18.1001 86.2135 18.7134 85.4801 19.1401C84.7468 19.5667 83.8068 19.7801 82.6601 19.7801ZM82.5401 13.2801C83.2068 13.2801 83.7601 13.1201 84.2001 12.8001C84.6535 12.4667 84.9935 12.0267 85.2201 11.4801C85.4468 10.9334 85.5601 10.3334 85.5601 9.68007C85.5601 9.0134 85.4468 8.42007 85.2201 7.90007C84.9935 7.36674 84.6601 6.94673 84.2201 6.64007C83.7801 6.3334 83.2135 6.18007 82.5201 6.18007C81.8001 6.18007 81.2268 6.34674 80.8001 6.68007C80.3735 7.00007 80.0601 7.4334 79.8601 7.98007C79.6735 8.5134 79.5801 9.10674 79.5801 9.76007C79.5801 10.4267 79.6801 11.0267 79.8801 11.5601C80.0801 12.0934 80.3935 12.5134 80.8201 12.8201C81.2601 13.1267 81.8335 13.2801 82.5401 13.2801Z" fill="#A6D700"/>
<path d="M73.3107 15V4.46004H75.3707V15H73.3107ZM74.3307 3.06004C73.9307 3.06004 73.6041 2.94004 73.3507 2.70004C73.1107 2.44671 72.9907 2.12671 72.9907 1.74004C72.9907 1.35338 73.1174 1.04004 73.3707 0.800044C73.6241 0.546711 73.9441 0.420044 74.3307 0.420044C74.6907 0.420044 75.0041 0.546711 75.2707 0.800044C75.5507 1.04004 75.6907 1.35338 75.6907 1.74004C75.6907 2.12671 75.5574 2.44671 75.2907 2.70004C75.0374 2.94004 74.7174 3.06004 74.3307 3.06004Z" fill="#A6D700"/>
<path d="M67.0554 15.1201C66.5621 15.1201 66.0688 15.0734 65.5754 14.9801C65.0821 14.8867 64.6221 14.7201 64.1954 14.4801C63.7687 14.2401 63.4088 13.9201 63.1154 13.5201C62.8221 13.1067 62.6354 12.6001 62.5554 12.0001H64.6554C64.7621 12.3201 64.9488 12.5801 65.2154 12.7801C65.4954 12.9801 65.8021 13.1267 66.1354 13.2201C66.4821 13.3134 66.8221 13.3601 67.1554 13.3601C67.3554 13.3601 67.5754 13.3467 67.8154 13.3201C68.0688 13.2934 68.3088 13.2334 68.5354 13.1401C68.7621 13.0467 68.9488 12.9134 69.0954 12.7401C69.2421 12.5534 69.3154 12.3067 69.3154 12.0001C69.3154 11.7601 69.2488 11.5601 69.1154 11.4001C68.9954 11.2401 68.8221 11.1134 68.5954 11.0201C68.3821 10.9134 68.1221 10.8334 67.8154 10.7801C67.2154 10.6467 66.5687 10.5201 65.8754 10.4001C65.1954 10.2667 64.5954 10.0401 64.0754 9.72007C63.8888 9.60007 63.7221 9.46674 63.5754 9.32007C63.4288 9.16007 63.3021 8.98007 63.1954 8.78007C63.0888 8.58007 63.0088 8.36673 62.9554 8.14007C62.9021 7.9134 62.8754 7.66674 62.8754 7.40007C62.8754 6.8534 62.9821 6.38674 63.1954 6.00007C63.4221 5.6134 63.7288 5.30007 64.1154 5.06007C64.5021 4.80673 64.9421 4.62007 65.4354 4.50007C65.9288 4.38007 66.4488 4.32007 66.9954 4.32007C67.7021 4.32007 68.3421 4.4334 68.9154 4.66007C69.4888 4.88674 69.9621 5.22007 70.3354 5.66007C70.7088 6.10007 70.9288 6.6534 70.9954 7.32007H69.0554C68.9754 6.96007 68.7421 6.6734 68.3554 6.46007C67.9821 6.2334 67.5088 6.12007 66.9354 6.12007C66.7354 6.12007 66.5154 6.1334 66.2754 6.16007C66.0488 6.18674 65.8288 6.24673 65.6154 6.34007C65.4021 6.4334 65.2288 6.56673 65.0954 6.74007C64.9621 6.90007 64.8954 7.1134 64.8954 7.38007C64.8954 7.6334 64.9554 7.84673 65.0754 8.02007C65.2088 8.1934 65.3954 8.3334 65.6354 8.44007C65.8888 8.54673 66.1754 8.6334 66.4954 8.70007C66.9488 8.80674 67.4354 8.90674 67.9554 9.00007C68.4888 9.0934 68.9221 9.1934 69.2554 9.30007C69.6954 9.42007 70.0688 9.5934 70.3754 9.82007C70.6954 10.0467 70.9354 10.3334 71.0954 10.6801C71.2688 11.0267 71.3554 11.4467 71.3554 11.9401C71.3554 12.5801 71.2288 13.1067 70.9754 13.5201C70.7221 13.9201 70.3821 14.2401 69.9554 14.4801C69.5421 14.7201 69.0754 14.8867 68.5554 14.9801C68.0487 15.0734 67.5487 15.1201 67.0554 15.1201Z" fill="#A6D700"/>
<path d="M56.2711 15.1201C55.1644 15.1201 54.2377 14.8934 53.4911 14.4401C52.7444 13.9867 52.1777 13.3601 51.7911 12.5601C51.4177 11.7467 51.2311 10.8134 51.2311 9.76007C51.2311 8.6934 51.4244 7.7534 51.8111 6.94007C52.2111 6.12674 52.7844 5.48673 53.5311 5.02007C54.2911 4.5534 55.2044 4.32007 56.2711 4.32007C57.0844 4.32007 57.7911 4.4734 58.3911 4.78007C58.9911 5.0734 59.4844 5.4734 59.8711 5.98007C60.2711 6.48674 60.5644 7.0534 60.7511 7.68007C60.9377 8.2934 61.0177 8.9334 60.9911 9.60007C60.9911 9.74674 60.9844 9.88674 60.9711 10.0201C60.9577 10.1534 60.9444 10.2934 60.9311 10.4401H53.3111C53.3511 10.9734 53.4844 11.4601 53.7111 11.9001C53.9511 12.3401 54.2844 12.6934 54.7111 12.9601C55.1377 13.2134 55.6644 13.3401 56.2911 13.3401C56.6377 13.3401 56.9711 13.3001 57.2911 13.2201C57.6244 13.1267 57.9177 12.9867 58.1711 12.8001C58.4377 12.6001 58.6244 12.3467 58.7311 12.0401H60.8111C60.6377 12.7467 60.3244 13.3334 59.8711 13.8001C59.4311 14.2534 58.8911 14.5867 58.2511 14.8001C57.6244 15.0134 56.9644 15.1201 56.2711 15.1201ZM53.3511 8.80007H58.9511C58.9377 8.28007 58.8177 7.82007 58.5911 7.42007C58.3644 7.00674 58.0511 6.68674 57.6511 6.46007C57.2511 6.22007 56.7711 6.10007 56.2111 6.10007C55.5977 6.10007 55.0844 6.22673 54.6711 6.48007C54.2711 6.7334 53.9577 7.06674 53.7311 7.48007C53.5177 7.88007 53.3911 8.32007 53.3511 8.80007Z" fill="#A6D700"/>
<path d="M43.6645 15.1201C42.6112 15.1201 41.7379 14.8868 41.0445 14.4201C40.3645 13.9401 39.8512 13.2934 39.5045 12.4801C39.1712 11.6668 39.0045 10.7534 39.0045 9.74011C39.0045 8.71344 39.1779 7.79344 39.5245 6.98011C39.8712 6.15344 40.3978 5.50677 41.1045 5.04011C41.8112 4.56011 42.7045 4.32011 43.7845 4.32011C44.1845 4.32011 44.5845 4.36677 44.9845 4.46011C45.3978 4.55344 45.7778 4.70011 46.1245 4.90011C46.4845 5.08677 46.7912 5.34011 47.0445 5.66011V0.860107H49.1045V15.0001H47.1245L47.0445 13.5601C46.8045 13.9201 46.5045 14.2201 46.1445 14.4601C45.7978 14.6868 45.4112 14.8534 44.9845 14.9601C44.5578 15.0668 44.1178 15.1201 43.6645 15.1201ZM44.0045 13.2801C44.6845 13.2801 45.2445 13.1134 45.6845 12.7801C46.1379 12.4468 46.4779 12.0068 46.7045 11.4601C46.9312 10.9134 47.0445 10.3201 47.0445 9.68011C47.0445 9.02677 46.9312 8.44011 46.7045 7.92011C46.4912 7.38677 46.1579 6.96677 45.7045 6.66011C45.2645 6.34011 44.6979 6.18011 44.0045 6.18011C43.2845 6.18011 42.7112 6.34677 42.2845 6.68011C41.8578 7.00011 41.5445 7.43344 41.3445 7.98011C41.1579 8.52677 41.0645 9.12678 41.0645 9.78011C41.0645 10.2601 41.1179 10.7134 41.2245 11.1401C41.3312 11.5534 41.4979 11.9268 41.7245 12.2601C41.9645 12.5801 42.2712 12.8334 42.6445 13.0201C43.0178 13.1934 43.4712 13.2801 44.0045 13.2801Z" fill="#A6D700"/>
<path d="M32.3027 15.1201C31.8627 15.1201 31.4427 15.0734 31.0427 14.9801C30.656 14.8868 30.2893 14.7401 29.9427 14.5401C29.6093 14.3268 29.3093 14.0668 29.0427 13.7601L28.9827 15.0001H26.9827V0.860107H29.0427V5.88011C29.416 5.37344 29.916 4.98677 30.5427 4.72011C31.1693 4.45344 31.816 4.32011 32.4827 4.32011C33.536 4.32011 34.4027 4.56011 35.0827 5.04011C35.7627 5.50677 36.2627 6.14677 36.5827 6.96011C36.916 7.76011 37.0827 8.67344 37.0827 9.70011C37.0827 10.7134 36.9093 11.6334 36.5627 12.4601C36.216 13.2734 35.6893 13.9201 34.9827 14.4001C34.2893 14.8801 33.396 15.1201 32.3027 15.1201ZM32.0827 13.3001C32.816 13.3001 33.396 13.1334 33.8227 12.8001C34.2493 12.4668 34.556 12.0268 34.7427 11.4801C34.9293 10.9334 35.0227 10.3468 35.0227 9.72011C35.0227 9.06677 34.9227 8.47344 34.7227 7.94011C34.536 7.40677 34.2227 6.98011 33.7827 6.66011C33.356 6.34011 32.7827 6.18011 32.0627 6.18011C31.4093 6.18011 30.856 6.36011 30.4027 6.72011C29.9493 7.06677 29.6027 7.51344 29.3627 8.06011C29.136 8.60677 29.0227 9.17344 29.0227 9.76011C29.0227 10.3734 29.1227 10.9534 29.3227 11.5001C29.536 12.0334 29.8693 12.4668 30.3227 12.8001C30.776 13.1334 31.3627 13.3001 32.0827 13.3001Z" fill="#A6D700"/>
<path d="M19.9206 15.1201C18.4406 15.1201 17.3073 14.7334 16.5206 13.9601C15.7473 13.1734 15.3606 11.9801 15.3606 10.3801V4.46008H17.4206V10.2601C17.4206 10.8867 17.5073 11.4267 17.6806 11.8801C17.8673 12.3334 18.1473 12.6801 18.5206 12.9201C18.8939 13.1601 19.3673 13.2801 19.9406 13.2801C20.5406 13.2801 21.0206 13.1601 21.3806 12.9201C21.7539 12.6667 22.0206 12.3134 22.1806 11.8601C22.3539 11.4068 22.4406 10.8734 22.4406 10.2601V4.46008H24.5006V10.3801C24.5006 12.0067 24.1006 13.2067 23.3006 13.9801C22.5139 14.7401 21.3873 15.1201 19.9206 15.1201Z" fill="#A6D700"/>
<path d="M7.48001 15.1601C6.02667 15.1601 4.80667 14.8534 3.82 14.2401C2.84667 13.6267 2.11334 12.7801 1.62 11.7001C1.12667 10.6201 0.880005 9.37341 0.880005 7.96007C0.880005 6.54674 1.12667 5.29341 1.62 4.20007C2.12667 3.10674 2.86667 2.25341 3.84 1.64007C4.82667 1.01341 6.04667 0.700073 7.50001 0.700073C8.55334 0.700073 9.47334 0.873406 10.26 1.22007C11.0467 1.55341 11.68 2.03341 12.16 2.66007C12.6533 3.27341 12.98 4.00674 13.14 4.86007H11.06C10.86 4.18007 10.4533 3.64007 9.84 3.24007C9.22667 2.84007 8.44001 2.64007 7.48001 2.64007C6.41334 2.64007 5.55334 2.88674 4.9 3.38007C4.26 3.87341 3.79334 4.52007 3.50001 5.32007C3.20667 6.10674 3.06 6.96007 3.06 7.88007C3.06 8.82674 3.21334 9.70674 3.52 10.5201C3.82667 11.3334 4.31334 11.9867 4.98001 12.4801C5.64667 12.9734 6.50001 13.2201 7.54 13.2201C8.18 13.2201 8.74667 13.1334 9.24 12.9601C9.73334 12.7734 10.1467 12.5134 10.48 12.1801C10.8133 11.8334 11.04 11.4334 11.16 10.9801H13.38C13.2067 11.8467 12.8533 12.5934 12.32 13.2201C11.7867 13.8467 11.1133 14.3267 10.3 14.6601C9.48667 14.9934 8.54667 15.1601 7.48001 15.1601Z" fill="#A6D700"/>
</svg>
