<svg width="130" height="140" viewBox="0 0 130 140" fill="none" xmlns="http://www.w3.org/2000/svg">
<g clip-path="url(#clip0_4243_2817)">
<path d="M72.5935 67.8926L83.2944 65.3059L68.0371 122.281L57.9587 125.211L72.5935 67.8926Z" stroke="#ACABA4" stroke-miterlimit="10"/>
<path d="M92.0823 62.8862L102.783 60.2994L87.5259 117.274L77.4484 120.204L92.0823 62.8862Z" stroke="#ACABA4" stroke-miterlimit="10"/>
<path d="M111.629 57.7639L122.329 55.1778L107.072 112.152L96.9942 115.082L111.629 57.7639Z" stroke="#ACABA4" stroke-miterlimit="10"/>
<path d="M108.88 41.4064L116.532 49.3175L58.7105 64.0617L51.0696 56.8539L108.88 41.4064Z" stroke="#ACABA4" stroke-miterlimit="10"/>
<path d="M94.2062 27.3413L101.859 35.2517L44.0374 49.996L36.3956 42.7879L94.2062 27.3413Z" stroke="#ACABA4" stroke-miterlimit="10"/>
<path d="M80.935 13.6229L88.5865 21.5331L30.7651 36.2783L23.1245 29.0695L80.935 13.6229Z" stroke="#ACABA4" stroke-miterlimit="10"/>
<path d="M63.3958 78.1781L60.2952 88.6065L18.1926 46.3156L20.6821 36.2399L63.3958 78.1781Z" stroke="#ACABA4" stroke-miterlimit="10"/>
<path d="M58.181 97.652L55.0801 108.081L12.9775 65.7904L15.467 55.7147L58.181 97.652Z" stroke="#ACABA4" stroke-miterlimit="10"/>
<path d="M53.2134 116.202L50.1128 126.631L8.01021 84.3396L10.4998 74.2639L53.2134 116.202Z" stroke="#ACABA4" stroke-miterlimit="10"/>
</g>
<defs>
<clipPath id="clip0_4243_2817">
<rect width="103.185" height="117.27" fill="white" transform="matrix(0.965887 0.258963 -0.258676 0.965964 30.335 0)"/>
</clipPath>
</defs>
</svg>
