<svg width="105" height="120" viewBox="0 0 105 120" fill="none" xmlns="http://www.w3.org/2000/svg">
<path d="M59.415 55.9134L69.2637 50.5149V110.94L60.118 116.513L59.415 55.9134Z" fill="#0D0C0F"/>
<path d="M77.2705 45.7892L87.1191 40.3907V100.816L77.9744 106.389L77.2705 45.7892Z" fill="#0D0C0F"/>
<path d="M95.1523 35.5353L105 30.1377V90.5621L95.8553 96.1349L95.1523 35.5353Z" fill="#0D0C0F"/>
<path d="M88.1388 20.0782L97.7508 25.8765L44.7476 55.8061L35.3311 50.7008L88.1388 20.0782Z" fill="#0D0C0F"/>
<path d="M69.9923 10.0538L79.6053 15.8511L26.6021 45.7807L17.1846 40.6755L69.9923 10.0538Z" fill="#0D0C0F"/>
<path d="M53.3204 0L62.9325 5.79735L9.92927 35.7279L0.512695 30.6217L53.3204 0Z" fill="#0D0C0F"/>
<path d="M53.0736 68.5314L52.7706 79.6731L0.205261 48.9953L0 38.3647L53.0736 68.5314Z" fill="#0D0C0F"/>
<path d="M53.0736 89.1846L52.7706 100.327L0.205261 69.6494L0 59.0188L53.0736 89.1846Z" fill="#0D0C0F"/>
<path d="M53.0736 108.858L52.7706 120L0.205261 89.3221L0 78.6915L53.0736 108.858Z" fill="#0D0C0F"/>
</svg>
