<svg width="40" height="40" viewBox="0 0 40 40" fill="none" xmlns="http://www.w3.org/2000/svg">
<path d="M35 12.5H27.5V5C27.4993 4.33716 27.2357 3.70166 26.767 3.23296C26.2983 2.76427 25.6628 2.50066 25 2.5H5C4.33716 2.50066 3.70166 2.76427 3.23296 3.23296C2.76427 3.70166 2.50066 4.33716 2.5 5V25C2.50066 25.6628 2.76427 26.2983 3.23296 26.767C3.70166 27.2357 4.33716 27.4993 5 27.5H12.5V35C12.5 35.663 12.7634 36.2989 13.2322 36.7678C13.7011 37.2366 14.337 37.5 15 37.5H35C35.663 37.5 36.2989 37.2366 36.7678 36.7678C37.2366 36.2989 37.5 35.663 37.5 35V15C37.5 14.337 37.2366 13.7011 36.7678 13.2322C36.2989 12.7634 35.663 12.5 35 12.5ZM5 25L4.9975 5H25V12.5H15C14.337 12.5 13.7011 12.7634 13.2322 13.2322C12.7634 13.7011 12.5 14.337 12.5 15V25H5Z" fill="#ACABA4"/>
</svg>
