<svg width="194" height="40" viewBox="0 0 194 40" fill="none" xmlns="http://www.w3.org/2000/svg">
<path d="M187.526 31.9225C186.116 31.9225 184.911 31.63 183.913 31.0451C182.933 30.4602 182.184 29.6516 181.668 28.6193C181.169 27.5698 180.92 26.3569 180.92 24.9806C180.92 23.6042 181.178 22.3913 181.694 21.3419C182.227 20.2752 182.984 19.4408 183.965 18.8387C184.963 18.2365 186.159 17.9354 187.552 17.9354C188.584 17.9354 189.488 18.1247 190.262 18.5032C191.036 18.8645 191.681 19.3634 192.197 19.9999C192.731 20.6365 193.126 21.3591 193.384 22.1677C193.643 22.9763 193.763 23.8279 193.746 24.7225C193.729 24.929 193.711 25.1354 193.694 25.3419C193.677 25.5311 193.651 25.7376 193.617 25.9612H184.068C184.12 26.5634 184.275 27.1139 184.533 27.6128C184.808 28.1118 185.187 28.5075 185.668 28.7999C186.167 29.0924 186.787 29.2387 187.526 29.2387C187.956 29.2387 188.369 29.187 188.765 29.0838C189.161 28.9634 189.505 28.7913 189.797 28.5677C190.107 28.344 190.313 28.0602 190.417 27.7161H193.565C193.341 28.6967 192.929 29.4967 192.326 30.1161C191.724 30.7354 191.002 31.1913 190.159 31.4838C189.333 31.7763 188.455 31.9225 187.526 31.9225ZM184.12 23.6128H190.675C190.675 23.0451 190.546 22.529 190.288 22.0645C190.03 21.5999 189.66 21.2387 189.178 20.9806C188.713 20.7053 188.146 20.5677 187.475 20.5677C186.752 20.5677 186.15 20.7139 185.668 21.0064C185.187 21.2989 184.817 21.6774 184.559 22.1419C184.301 22.6064 184.154 23.0967 184.12 23.6128Z" fill="white"/>
<path d="M171.806 31.9228C170.429 31.9228 169.294 31.6131 168.399 30.9937C167.505 30.3572 166.834 29.5142 166.386 28.4647C165.956 27.4152 165.741 26.2453 165.741 24.955C165.741 23.6131 165.973 22.4174 166.438 21.3679C166.903 20.3012 167.599 19.4668 168.528 18.8647C169.457 18.2453 170.619 17.9357 172.012 17.9357C172.528 17.9357 173.027 17.9959 173.509 18.1163C174.008 18.2195 174.472 18.3916 174.903 18.6324C175.35 18.8561 175.72 19.1572 176.012 19.5357V13.4969H179.161V31.7421H176.115L176.064 30.0389C175.737 30.469 175.35 30.8217 174.903 31.0969C174.472 31.3722 173.991 31.5787 173.457 31.7163C172.924 31.8539 172.373 31.9228 171.806 31.9228ZM172.399 29.084C173.225 29.084 173.905 28.8948 174.438 28.5163C174.971 28.1206 175.367 27.6045 175.625 26.9679C175.9 26.3142 176.038 25.626 176.038 24.9034C176.038 24.1464 175.9 23.4582 175.625 22.8389C175.367 22.2195 174.971 21.7206 174.438 21.3421C173.905 20.9636 173.225 20.7744 172.399 20.7744C171.522 20.7744 170.825 20.9722 170.309 21.3679C169.81 21.7636 169.44 22.2883 169.199 22.9421C168.976 23.5787 168.864 24.2668 168.864 25.0066C168.864 25.5572 168.924 26.0819 169.044 26.5808C169.182 27.0625 169.389 27.4926 169.664 27.8711C169.939 28.2496 170.3 28.5507 170.748 28.7744C171.195 28.9808 171.746 29.084 172.399 29.084Z" fill="white"/>
<path d="M157.853 31.9225C156.459 31.9225 155.255 31.6387 154.24 31.0709C153.242 30.5032 152.468 29.6946 151.917 28.6451C151.384 27.5956 151.117 26.3655 151.117 24.9548C151.117 23.5268 151.392 22.2967 151.943 21.2645C152.494 20.215 153.268 19.3978 154.266 18.8128C155.263 18.2279 156.459 17.9354 157.853 17.9354C159.229 17.9354 160.416 18.2279 161.414 18.8128C162.412 19.3978 163.177 20.2236 163.711 21.2903C164.244 22.3397 164.511 23.5784 164.511 25.0064C164.511 26.3999 164.244 27.6214 163.711 28.6709C163.195 29.7032 162.438 30.5032 161.44 31.0709C160.442 31.6387 159.246 31.9225 157.853 31.9225ZM157.827 29.058C158.687 29.058 159.375 28.8688 159.891 28.4903C160.425 28.1118 160.812 27.6128 161.053 26.9935C161.294 26.3741 161.414 25.7032 161.414 24.9806C161.414 24.258 161.294 23.5784 161.053 22.9419C160.812 22.3053 160.425 21.7978 159.891 21.4193C159.375 21.0236 158.687 20.8257 157.827 20.8257C156.967 20.8257 156.27 21.0236 155.737 21.4193C155.203 21.7978 154.816 22.3053 154.575 22.9419C154.334 23.5612 154.214 24.2408 154.214 24.9806C154.214 25.7032 154.334 26.3827 154.575 27.0193C154.833 27.6386 155.22 28.1376 155.737 28.5161C156.27 28.8774 156.967 29.058 157.827 29.058Z" fill="white"/>
<path d="M143.98 31.9225C142.569 31.9225 141.382 31.6387 140.418 31.0709C139.455 30.486 138.724 29.6688 138.225 28.6193C137.726 27.5698 137.477 26.3569 137.477 24.9806C137.477 23.6042 137.735 22.3913 138.251 21.3419C138.767 20.2752 139.524 19.4408 140.522 18.8387C141.52 18.2365 142.732 17.9354 144.16 17.9354C145.21 17.9354 146.139 18.1161 146.948 18.4774C147.773 18.8387 148.436 19.372 148.935 20.0774C149.451 20.7655 149.778 21.6257 149.915 22.658H146.819C146.612 22.0042 146.268 21.5311 145.786 21.2387C145.322 20.929 144.763 20.7741 144.109 20.7741C143.231 20.7741 142.535 20.9892 142.018 21.4193C141.52 21.8322 141.158 22.3569 140.935 22.9935C140.711 23.63 140.599 24.2924 140.599 24.9806C140.599 25.7032 140.72 26.3827 140.96 27.0193C141.201 27.6386 141.571 28.1376 142.07 28.5161C142.586 28.8946 143.249 29.0838 144.057 29.0838C144.711 29.0838 145.296 28.9376 145.812 28.6451C146.345 28.3526 146.689 27.8795 146.844 27.2257H150.044C149.924 28.2752 149.571 29.1526 148.986 29.858C148.418 30.5462 147.696 31.0623 146.819 31.4064C145.941 31.7505 144.995 31.9225 143.98 31.9225Z" fill="white"/>
<path d="M123.293 31.7419V18.1419H126.235L126.416 19.8709C126.777 19.3892 127.198 19.0107 127.68 18.7354C128.162 18.4602 128.669 18.2623 129.203 18.1419C129.736 18.0042 130.235 17.9354 130.699 17.9354C131.99 17.9354 133.005 18.2193 133.745 18.787C134.502 19.3548 135.035 20.1118 135.345 21.058C135.654 22.0042 135.809 23.0623 135.809 24.2322V31.7419H132.661V24.7483C132.661 24.2494 132.626 23.7677 132.557 23.3032C132.489 22.8214 132.351 22.3913 132.145 22.0128C131.955 21.6343 131.68 21.3333 131.319 21.1096C130.957 20.886 130.476 20.7741 129.874 20.7741C129.134 20.7741 128.506 20.972 127.99 21.3677C127.474 21.7634 127.087 22.2967 126.828 22.9677C126.57 23.6214 126.441 24.3698 126.441 25.2128V31.7419H123.293Z" fill="white"/>
<path d="M109.979 31.7421V13.4969H113.127V23.5873H115.088L118.675 18.1421H122.211L117.798 24.6195L122.572 31.7421H118.908L115.269 26.3486H113.127V31.7421H109.979Z" fill="white"/>
<path d="M102.325 31.9225C100.915 31.9225 99.7276 31.6387 98.7642 31.0709C97.8008 30.486 97.0696 29.6688 96.5707 28.6193C96.0717 27.5698 95.8223 26.3569 95.8223 24.9806C95.8223 23.6042 96.0803 22.3913 96.5965 21.3419C97.1126 20.2752 97.8696 19.4408 98.8674 18.8387C99.8653 18.2365 101.078 17.9354 102.506 17.9354C103.556 17.9354 104.485 18.1161 105.293 18.4774C106.119 18.8387 106.781 19.372 107.28 20.0774C107.796 20.7655 108.123 21.6257 108.261 22.658H105.164C104.958 22.0042 104.614 21.5311 104.132 21.2387C103.667 20.929 103.108 20.7741 102.455 20.7741C101.577 20.7741 100.88 20.9892 100.364 21.4193C99.8653 21.8322 99.504 22.3569 99.2803 22.9935C99.0567 23.63 98.9448 24.2924 98.9448 24.9806C98.9448 25.7032 99.0653 26.3827 99.3061 27.0193C99.547 27.6386 99.9169 28.1376 100.416 28.5161C100.932 28.8946 101.594 29.0838 102.403 29.0838C103.057 29.0838 103.642 28.9376 104.158 28.6451C104.691 28.3526 105.035 27.8795 105.19 27.2257H108.39C108.27 28.2752 107.917 29.1526 107.332 29.858C106.764 30.5462 106.042 31.0623 105.164 31.4064C104.287 31.7505 103.341 31.9225 102.325 31.9225Z" fill="white"/>
<path d="M87.9327 31.9225C86.5392 31.9225 85.3349 31.6387 84.3198 31.0709C83.322 30.5032 82.5478 29.6946 81.9973 28.6451C81.4639 27.5956 81.1973 26.3655 81.1973 24.9548C81.1973 23.5268 81.4725 22.2967 82.0231 21.2645C82.5736 20.215 83.3478 19.3978 84.3457 18.8128C85.3435 18.2279 86.5392 17.9354 87.9327 17.9354C89.3091 17.9354 90.4962 18.2279 91.494 18.8128C92.4919 19.3978 93.2575 20.2236 93.7908 21.2903C94.3241 22.3397 94.5908 23.5784 94.5908 25.0064C94.5908 26.3999 94.3241 27.6214 93.7908 28.6709C93.2747 29.7032 92.5177 30.5032 91.5198 31.0709C90.522 31.6387 89.3263 31.9225 87.9327 31.9225ZM87.9069 29.058C88.7672 29.058 89.4553 28.8688 89.9715 28.4903C90.5048 28.1118 90.8919 27.6128 91.1327 26.9935C91.3736 26.3741 91.494 25.7032 91.494 24.9806C91.494 24.258 91.3736 23.5784 91.1327 22.9419C90.8919 22.3053 90.5048 21.7978 89.9715 21.4193C89.4553 21.0236 88.7672 20.8257 87.9069 20.8257C87.0467 20.8257 86.35 21.0236 85.8166 21.4193C85.2833 21.7978 84.8962 22.3053 84.6553 22.9419C84.4145 23.5612 84.294 24.2408 84.294 24.9806C84.294 25.7032 84.4145 26.3827 84.6553 27.0193C84.9134 27.6386 85.3005 28.1376 85.8166 28.5161C86.35 28.8774 87.0467 29.058 87.9069 29.058Z" fill="white"/>
<path d="M65.7412 31.7421V13.4969H72.9412C73.8702 13.4969 74.7477 13.5916 75.5735 13.7808C76.3993 13.9529 77.1305 14.2625 77.767 14.7099C78.4036 15.14 78.9025 15.7335 79.2638 16.4905C79.6251 17.2475 79.8057 18.1851 79.8057 19.3034C79.8057 20.2324 79.6423 21.0496 79.3154 21.755C78.9885 22.4604 78.5326 23.0539 77.9477 23.5357C77.3799 24.0174 76.7004 24.3873 75.909 24.6453L79.909 31.7421H76.2961L72.709 25.1615H68.967V31.7421H65.7412ZM68.967 22.2969H72.5025C73.0874 22.2969 73.6208 22.2539 74.1025 22.1679C74.6014 22.0647 75.0315 21.9012 75.3928 21.6776C75.7713 21.4539 76.0552 21.1529 76.2444 20.7744C76.4509 20.3787 76.5627 19.8797 76.5799 19.2776C76.5799 18.555 76.4251 17.9873 76.1154 17.5744C75.8229 17.1615 75.3928 16.869 74.8251 16.6969C74.2745 16.5249 73.6122 16.4389 72.838 16.4389H68.967V22.2969Z" fill="white"/>
<path d="M5.76339 0.877521C5.83989 0.372941 6.27364 0 6.78398 0H40.8642C41.4343 0 41.8964 0.462158 41.8964 1.03226V9.53232C41.8964 9.71196 41.8496 9.88849 41.7604 10.0445L37.2513 17.9355L-nan -nanL37.2513 17.9355C36.2764 19.2353 35.9694 20.9179 36.4224 22.4783L36.8642 24L41.8217 38.6366C42.0484 39.3059 41.5507 40 40.844 40H1.03247C0.400727 40 -0.0828196 39.4376 0.0118792 38.813L5.76339 0.877521Z" fill="#1B1C17"/>
<path d="M3.4335 36.9032H37.965L33.931 24.9934L33.9093 24.9289L33.8902 24.8634L33.4484 23.3417C32.7443 20.9166 33.1884 18.3068 34.6452 16.2538L38.7997 8.98387V3.09677H8.55901L3.4335 36.9032ZM41.8965 9.53226C41.8965 9.71188 41.8495 9.88839 41.7604 10.0444L37.2513 17.9355C36.2764 19.2353 35.9694 20.9179 36.4224 22.4783L36.8642 24L41.8219 38.6366C42.0485 39.3059 41.5507 40 40.844 40H1.03254L0.973824 39.9985C0.371144 39.965 -0.0798658 39.4181 0.0118786 38.813L5.76339 0.87752C5.8375 0.388696 6.24692 0.0233447 6.73643 0.00100806L6.78406 0H40.8642C41.4343 0 41.8965 0.462158 41.8965 1.03226V9.53226Z" fill="#C6FF00"/>
<path d="M40.3564 9.16759C36.5075 7.71646 32.606 5.58042 30.6155 4.39113C30.3779 4.24922 30.0965 4.2066 29.8292 4.27797C28.9571 4.51081 28.033 4.78445 27.2599 4.82888C27.122 4.83679 26.9855 4.80696 26.8574 4.75529C24.1379 3.65788 21.1622 3.54961 19.9912 3.63634C20.2132 4.25795 20.7103 5.66102 20.9234 6.3004C14.0175 7.19566 9.26081 11.6853 6.27246 16.3322L6.15452 15.7419L7.89066 1.80645H40.4771L40.3564 9.16759Z" fill="#C6FF00"/>
<path d="M37.2171 9.46532L45.6857 11.9268L44.6176 15.6014L36.149 13.1399L37.2171 9.46532Z" fill="#1B1C17"/>
<path d="M33.045 10.8672C29.4219 12.4883 28.5161 9.74137 28.5161 8.16525C29.0596 8.16525 29.7993 8.31536 30.1013 8.39041V9.96653C30.4032 9.74137 31.0976 9.20098 31.4599 8.84073C32.1392 9.06589 32.3657 9.96653 33.045 10.8672Z" fill="#C6FF00"/>
<path d="M20.9234 6.3004C9.41474 7.79227 3.87367 19.2654 2.54164 24.8155C8.72223 11.2822 18.5259 7.89883 22.6552 7.89883C22.4332 7.14401 21.9093 5.47454 21.5896 4.83518C22.6227 4.43558 26.2517 6.3004 27.3173 6.16719C27.9386 6.08953 28.857 5.84207 29.5157 5.61044C29.8889 5.47923 30.3128 5.52145 30.6304 5.75715C31.9274 6.71961 34.0915 8.22229 35.5758 8.96445C37.2808 9.81694 42.5912 11.6285 45.0332 12.4277C44.8556 12.6497 44.3139 13.3601 43.568 14.4257C38.0255 12.2581 36.7352 13.0937 34.5416 13.6774C32.4771 14.4257 29.7149 14.8253 28.3829 15.225C28.1165 14.2925 27.0509 13.0937 24.9196 14.4257C23.2147 15.4914 19.9468 16.0242 18.5259 16.1574C20.9168 16.9963 26.0182 18.699 28.2821 19.1543C28.5196 19.2021 28.7615 19.1537 28.9789 19.0468C30.0976 18.497 33.2263 17.212 36.6211 16.2716C36.8892 16.1973 37.1756 16.2391 37.4178 16.376C43.6131 19.8765 51.2057 19.6206 53.4249 19.6206C54.091 18.2886 52.4925 14.1593 51.8265 13.0937C51.1605 12.0281 50.2281 11.7617 43.9676 10.2965C39.1971 9.17997 33.2424 5.96064 30.6155 4.39113C30.3779 4.24922 30.0965 4.2066 29.8292 4.27797C28.9571 4.51081 28.033 4.78445 27.2599 4.82888C27.122 4.83679 26.9855 4.80696 26.8574 4.75529C24.1379 3.65788 21.1622 3.54961 19.9912 3.63634C20.2132 4.25795 20.7103 5.66102 20.9234 6.3004Z" fill="#C6FF00"/>
<path d="M37.8965 16.7742C36.2067 16.6748 30.2772 19.9825 28.9933 20.6452C34.0255 23.3548 37.8965 27.3548 37.8965 27.3548C35.3158 21.5484 35.4449 18.8387 37.8965 16.7742Z" fill="#C6FF00"/>
<path d="M36.5083 31.6088C33.045 29.3444 25.4525 27.746 24.7865 27.3464C24.4605 27.1508 23.0207 25.0501 21.5657 22.8387C20.73 23.914 19.0588 26.4516 19.0588 28C19.0588 29.5484 21.9828 35.6129 23.4448 38.4516H15.5739C15.5309 38.1936 15.3674 36.9807 15.0578 34.1936C14.1287 28.2065 17.338 21.5396 19.0588 18.9546C19.9024 19.3986 22.5753 20.7662 26.5181 22.6843C33.9774 22.4179 34.1106 24.0163 36.7747 26.414C39.013 28.4284 44.9185 32.2295 46.6698 33.3929C46.9821 33.6004 47.0527 33.9501 46.779 34.2063C46.0342 34.9037 44.5955 35.6176 43.5765 36.051C43.2426 36.1931 42.8606 36.1338 42.5724 35.9133C41.326 34.96 38.9307 33.1928 36.5083 31.6088Z" fill="#C6FF00"/>
<path d="M38.7727 18.9546V17.7558C38.9503 17.7558 39.3055 17.8091 39.3055 18.0222C39.3055 18.2353 38.9503 18.7326 38.7727 18.9546Z" fill="#C6FF00"/>
<path d="M40.1047 19.7538V18.4218C40.3711 18.4218 40.7707 18.4751 40.7707 18.6882C40.7707 18.9013 40.3267 19.4874 40.1047 19.7538Z" fill="#C6FF00"/>
<path d="M41.3035 20.2867L41.5699 18.9546C41.8363 18.9546 42.236 18.9546 42.236 19.221C42.236 19.3276 41.6143 19.9758 41.3035 20.2867Z" fill="#C6FF00"/>
<path d="M42.6356 21.2191L43.0352 19.3542C43.1684 19.221 43.8344 19.221 43.8344 19.4874C43.8344 19.8071 42.9464 20.8195 42.6356 21.2191Z" fill="#C6FF00"/>
<path d="M43.8344 22.5511C43.9409 22.4445 44.4116 20.6419 44.6336 19.7538C44.8112 19.7538 45.2996 19.6206 45.6992 19.887C45.8058 20.7395 44.5004 22.0183 43.8344 22.5511Z" fill="#C6FF00"/>
<path d="M44.9 23.7499C45.1131 23.5368 45.9656 21.0859 46.3652 19.887C46.676 19.8426 47.4575 19.8338 48.0969 20.1535C47.564 22.4978 45.7436 23.5279 44.9 23.7499Z" fill="#C6FF00"/>
<path d="M47.8409 24.1418C48.1576 23.8853 48.4979 21.5618 48.6297 20.4199C48.9405 20.3755 49.6953 20.3666 50.2281 20.6863C50.3342 21.9598 48.6876 23.5151 47.8409 24.1418Z" fill="#C6FF00"/>
<path d="M49.6953 24.5491C49.8018 24.4426 50.4501 22.0183 50.7609 20.8195C51.0273 20.6863 51.7466 20.4998 52.4925 20.8195C52.386 21.9916 50.5833 23.7943 49.6953 24.5491Z" fill="#C6FF00"/>
<path d="M40.6375 27.08C40.5043 27.3464 39.8383 27.8792 39.7051 28.0124C39.7939 28.19 40.078 28.5452 40.5043 28.5452C40.7707 28.0124 40.7707 27.4796 40.6375 27.08Z" fill="#C6FF00"/>
<path d="M41.7031 29.4776C41.7578 29.4776 41.8299 29.1751 41.8651 28.8319C41.9007 28.4851 41.5409 28.3873 41.2859 28.625C41.0935 28.8044 41.0693 29.1138 41.2804 29.2706C41.4344 29.3849 41.5942 29.4776 41.7031 29.4776Z" fill="#C6FF00"/>
<path d="M43.1683 30.2768C43.7011 29.744 43.2167 28.0124 43.2167 28.0124C43.2167 28.0124 43.0607 28.6078 42.7687 29.078C42.5282 29.4653 42.1476 29.7435 42.1027 29.744C42.2359 29.8772 42.6355 30.2768 43.1683 30.2768Z" fill="#C6FF00"/>
<path d="M44.5004 27.746C44.3672 28.2788 44.3672 29.8772 43.7011 30.6764C43.7899 30.8096 44.1007 31.1027 44.6336 31.2092C45.1664 30.3567 44.7668 28.5452 44.5004 27.746Z" fill="#C6FF00"/>
<path d="M46.232 28.9448C46.232 29.744 45.3713 30.9872 44.9 31.3424C44.9888 31.52 45.2996 31.8753 45.8324 31.8753C46.7914 31.0228 46.4984 29.522 46.232 28.9448Z" fill="#C6FF00"/>
<path d="M47.6972 29.3444C47.6972 30.2768 46.232 31.8753 46.0988 32.0085C46.2764 32.2749 46.8181 32.8343 47.564 32.9409C48.2034 32.1949 47.8304 30.2324 47.6972 29.3444Z" fill="#C6FF00"/>
</svg>
