<svg id="Logo_site" data-name="Logo site" xmlns="http://www.w3.org/2000/svg" viewBox="0 0 308.74 229.55">
  <defs>
    <style>
      .cls-1 {
        fill: #f48a8a;
      }

      .cls-2 {
        fill: #636362;
      }

      .cls-3 {
        fill: none;
        stroke: #636362;
        stroke-miterlimit: 10;
        stroke-width: 5px;
      }
    </style>
  </defs>
  <g>
    <path class="cls-1" d="M1174,1001.4a20.53,20.53,0,0,1-8.81-7.92,22.16,22.16,0,0,1-3.08-11.7,32.19,32.19,0,0,1,4.05-16,29.56,29.56,0,0,1,11.4-11.36,33.71,33.71,0,0,1,16.88-4.16,30.09,30.09,0,0,1,12,2.25,17,17,0,0,1,7.92,6.52l-7.05,5.93q-4.42-6.15-13.58-6.15a21.68,21.68,0,0,0-11.47,3,20.46,20.46,0,0,0-7.65,8.14,23.88,23.88,0,0,0-2.7,11.29q0,6.67,4.27,10.57t12.15,3.9a19.87,19.87,0,0,0,14.93-6.07l5.7,6.14a23,23,0,0,1-9.23,6.38,33.68,33.68,0,0,1-12.15,2.1A30.67,30.67,0,0,1,1174,1001.4Z" transform="translate(-1162.12 -909.06)"/>
    <path class="cls-1" d="M1252.2,971.36H1238l-6.3,32.1h-9.38l6.3-32.1h-14l1.58-8h37.57Z" transform="translate(-1162.12 -909.06)"/>
    <path class="cls-1" d="M1260.6,963.41h9.45l-5.48,27.15,27.23-27.15h8.92l-8,40.05h-9.53l5.63-27.23-27.23,27.23h-9Z" transform="translate(-1162.12 -909.06)"/>
    <path class="cls-1" d="M1349.7,963.41l-8,40.05h-9.37l6.37-32.1h-15l-2,7.95a100.22,100.22,0,0,1-4.31,14,22.65,22.65,0,0,1-5.25,8.14,10.5,10.5,0,0,1-7.31,2.77,20.79,20.79,0,0,1-5.4-.83l2.1-7.87a8.75,8.75,0,0,0,1.8.22c2.44,0,4.4-1.39,5.85-4.2a63.5,63.5,0,0,0,4.35-12.82l3.75-15.3Z" transform="translate(-1162.12 -909.06)"/>
    <path class="cls-1" d="M1389.6,979.35q3.53,2.8,3.52,8.36a14.3,14.3,0,0,1-2.44,8.29,15.78,15.78,0,0,1-6.86,5.51,25.26,25.26,0,0,1-10.27,2h-19.2l8-39.9h9.3l-2.55,13h10.05Q1386.07,976.53,1389.6,979.35Zm-8.7,15a7.24,7.24,0,0,0,2.77-5.92q0-5.4-7.27-5.4h-8.63l-2.62,13.57h8.4A11.35,11.35,0,0,0,1380.9,994.38Z" transform="translate(-1162.12 -909.06)"/>
  </g>
  <g>
    <path class="cls-2" d="M1326.18,1018.55h9.31l-3.23,16.28h20.17l3.23-16.28H1365l-8,40h-9.37l3.15-15.82h-20.18l-3.14,15.82h-9.38Z" transform="translate(-1162.12 -909.06)"/>
    <path class="cls-2" d="M1417,1018.55l-8,40h-8.93l.83-4.12a20.45,20.45,0,0,1-22,2.55,15.53,15.53,0,0,1-6.34-6.11,18.49,18.49,0,0,1-2.33-9.42,24.38,24.38,0,0,1,3-12,21.46,21.46,0,0,1,8.1-8.37,22.38,22.38,0,0,1,11.51-3q9.6,0,13.65,6.38l1.12-5.93Zm-19.61,30.64a13.5,13.5,0,0,0,4.91-5.32,16.43,16.43,0,0,0,1.8-7.77,9.73,9.73,0,0,0-2.78-7.38q-2.77-2.67-7.8-2.67a13.18,13.18,0,0,0-7.08,1.92,13.46,13.46,0,0,0-4.92,5.32,16.39,16.39,0,0,0-1.8,7.76,9.76,9.76,0,0,0,2.78,7.39c1.85,1.78,4.45,2.66,7.8,2.66A13.24,13.24,0,0,0,1397.4,1049.19Z" transform="translate(-1162.12 -909.06)"/>
    <path class="cls-1" d="M1470.86,1006.1l-10.5,52.5h-9.68l2.93-14.62h-13.5l-12.68,14.62h-10.87l14.62-16.27a13.67,13.67,0,0,1-6.3-5.25,15.15,15.15,0,0,1-2.17-8.25,21.41,21.41,0,0,1,3.34-12,21.91,21.91,0,0,1,9.26-8,31.24,31.24,0,0,1,13.57-2.82Zm-34.2,11.74q-3.9,3.49-3.9,9.71a7.87,7.87,0,0,0,2.55,6.27q2.55,2.21,7.57,2.21h12.38l4.28-21.68h-11.93Q1440.56,1014.35,1436.66,1017.84Z" transform="translate(-1162.12 -909.06)"/>
  </g>
  <g>
    <path class="cls-2" d="M1226.91,1129.2h-11.73l-3.63,5.61h-2.4l13.8-21h2.19l5.4,21h-2.22Zm-.42-1.8-2.85-11.34-7.32,11.34Z" transform="translate(-1162.12 -909.06)"/>
    <path class="cls-2" d="M1249,1126.8l5.07,8h-2.43l-4.32-7h-3.72l-1.41,7H1240l3.18-15.78h2.13l-1.41,6.93h3.51l7-6.93h2.4Z" transform="translate(-1162.12 -909.06)"/>
    <path class="cls-2" d="M1280.61,1119l-3.15,15.78h-2l.51-2.49a7.92,7.92,0,0,1-2.7,2,8.44,8.44,0,0,1-3.45.69,7.63,7.63,0,0,1-3.57-.81,5.87,5.87,0,0,1-2.43-2.33,7,7,0,0,1-.87-3.55,9.9,9.9,0,0,1,1.15-4.8,8.6,8.6,0,0,1,3.2-3.35,8.74,8.74,0,0,1,4.56-1.21,7.44,7.44,0,0,1,3.78.88,5.15,5.15,0,0,1,2.22,2.54l.66-3.3Zm-6.87,13.09a6.56,6.56,0,0,0,2.44-2.64,8.06,8.06,0,0,0,.89-3.79,4.81,4.81,0,0,0-1.36-3.62,5.34,5.34,0,0,0-3.83-1.3,6.56,6.56,0,0,0-3.51,1,6.67,6.67,0,0,0-2.45,2.65,8.09,8.09,0,0,0-.88,3.8,4.68,4.68,0,0,0,1.37,3.6,5.32,5.32,0,0,0,3.82,1.29A6.64,6.64,0,0,0,1273.74,1132.12Z" transform="translate(-1162.12 -909.06)"/>
    <path class="cls-2" d="M1302.81,1133h2.46l-1.11,5.67h-2l.75-3.81h-14.13l-.75,3.81h-2l1.11-5.67h.81q1.59-.09,2.67-2.4a36.89,36.89,0,0,0,2.1-6.33L1294,1119h11.61Zm-9.87-2.91a6.19,6.19,0,0,1-2,2.91h9.75l2.4-12h-7.59l-.87,3.6A47.73,47.73,0,0,1,1292.94,1130Z" transform="translate(-1162.12 -909.06)"/>
    <path class="cls-2" d="M1317.21,1127.52a4.85,4.85,0,0,0,0,.63,4.73,4.73,0,0,0,1.36,3.66,5.84,5.84,0,0,0,4.07,1.26,8.15,8.15,0,0,0,2.93-.53,6,6,0,0,0,2.23-1.45l1,1.53a7.62,7.62,0,0,1-2.77,1.72,10.16,10.16,0,0,1-3.53.62,7.68,7.68,0,0,1-5.39-1.8,6.34,6.34,0,0,1-2-4.92,10.06,10.06,0,0,1,1.13-4.77,8.38,8.38,0,0,1,7.6-4.56,6.93,6.93,0,0,1,5,1.78,6.49,6.49,0,0,1,1.86,4.91,9.86,9.86,0,0,1-.21,1.92Zm2.49-5.4a7,7,0,0,0-2.28,3.81h11.25a4.24,4.24,0,0,0,0-.57,4.39,4.39,0,0,0-1.35-3.44,5.18,5.18,0,0,0-3.6-1.21A6.09,6.09,0,0,0,1319.7,1122.12Z" transform="translate(-1162.12 -909.06)"/>
    <path class="cls-2" d="M1360.47,1119l-3.15,15.78h-2l2.49-12.48-8.49,10.56h-1l-4.26-10.68-2.52,12.6h-2l3.15-15.78H1345l4.41,11.37,9.09-11.37Z" transform="translate(-1162.12 -909.06)"/>
    <path class="cls-2" d="M1372.53,1119h2.13l-2.55,12.75,13-12.75h2l-3.15,15.78h-2.19l2.61-12.75-13,12.75h-2.07Z" transform="translate(-1162.12 -909.06)"/>
    <path class="cls-2" d="M1411.29,1119l-3.12,15.78h-2l1-5.31h-5.43l-4.71,5.31h-2.43l5.16-5.64a3.94,3.94,0,0,1-3.09-4.11,5.27,5.27,0,0,1,2.1-4.43,9.22,9.22,0,0,1,5.73-1.6Zm-2.31,1.86h-4.53a6.64,6.64,0,0,0-4,1.08A3.6,3.6,0,0,0,1399,1125q0,2.91,3.78,2.91h4.86Z" transform="translate(-1162.12 -909.06)"/>
  </g>
  <polyline class="cls-3" points="12.15 32.55 12.15 2.5 291.51 2.5 291.51 87.19"/>
  <polyline class="cls-3" points="12.15 102.51 12.15 187.5 291.51 187.5 291.51 157.66"/>
</svg>
