<svg width="158" height="40" viewBox="0 0 158 40" fill="none" xmlns="http://www.w3.org/2000/svg">
<g clip-path="url(#clip0_2196_2408)">
<path d="M19.8037 18.6349L23.0829 16.8375V36.9559L20.0378 38.8113L19.8037 18.6349Z" fill="#C6FF00"/>
<path d="M25.75 15.264L29.0292 13.4666V33.5851L25.9844 35.4405L25.75 15.264Z" fill="#C6FF00"/>
<path d="M31.7051 11.85L34.984 10.0529V30.171L31.9391 32.0265L31.7051 11.85Z" fill="#C6FF00"/>
<path d="M29.3696 6.70367L32.5707 8.6342L14.9192 18.5992L11.7832 16.8994L29.3696 6.70367Z" fill="#C6FF00"/>
<path d="M23.3267 3.36603L26.5281 5.29624L8.87654 15.2612L5.74023 13.5614L23.3267 3.36603Z" fill="#C6FF00"/>
<path d="M17.7749 0.0186768L20.976 1.94888L3.32446 11.9142L0.188477 10.2141L17.7749 0.0186768Z" fill="#C6FF00"/>
<path d="M17.6925 22.836L17.5916 26.5455L0.0859356 16.3315L0.0175781 12.7921L17.6925 22.836Z" fill="#C6FF00"/>
<path d="M17.6925 29.7124L17.5916 33.4223L0.0859356 23.2082L0.0175781 19.6688L17.6925 29.7124Z" fill="#C6FF00"/>
<path d="M17.6925 36.2627L17.5916 39.9722L0.0859356 29.7582L0.0175781 26.2188L17.6925 36.2627Z" fill="#C6FF00"/>
</g>
<path d="M52.6609 29.24C51.2742 29.24 50.0742 28.94 49.0609 28.34C48.0609 27.7266 47.2876 26.88 46.7409 25.8C46.1942 24.7066 45.9209 23.4466 45.9209 22.02C45.9209 20.58 46.1942 19.32 46.7409 18.24C47.2876 17.1466 48.0609 16.2933 49.0609 15.68C50.0742 15.0666 51.2742 14.76 52.6609 14.76C54.3009 14.76 55.6409 15.16 56.6809 15.96C57.7209 16.76 58.3809 17.88 58.6609 19.32H56.3009C56.1142 18.5066 55.7142 17.86 55.1009 17.38C54.4876 16.9 53.6676 16.66 52.6409 16.66C51.2409 16.66 50.1342 17.14 49.3209 18.1C48.5076 19.0466 48.1009 20.3533 48.1009 22.02C48.1009 23.6733 48.5076 24.9733 49.3209 25.92C50.1342 26.8666 51.2409 27.34 52.6409 27.34C53.6676 27.34 54.4876 27.1133 55.1009 26.66C55.7142 26.2066 56.1142 25.5866 56.3009 24.8H58.6609C58.3809 26.1866 57.7209 27.2733 56.6809 28.06C55.6409 28.8466 54.3009 29.24 52.6609 29.24Z" fill="#C6FF00"/>
<path d="M64.5712 29.24C63.3712 29.24 62.4245 28.8666 61.7312 28.12C61.0512 27.3733 60.7112 26.26 60.7112 24.78V19.08H62.8312V24.56C62.8312 26.48 63.6179 27.44 65.1912 27.44C65.9779 27.44 66.6245 27.16 67.1312 26.6C67.6379 26.04 67.8912 25.24 67.8912 24.2V19.08H70.0112V29H68.1312L67.9712 27.26C67.6645 27.8733 67.2112 28.36 66.6112 28.72C66.0245 29.0666 65.3445 29.24 64.5712 29.24Z" fill="#C6FF00"/>
<path d="M78.2881 29.24C77.5148 29.24 76.8281 29.0866 76.2281 28.78C75.6414 28.4733 75.1748 28.04 74.8281 27.48L74.6081 29H72.7081V14.6H74.8281V20.62C75.1481 20.1533 75.5881 19.74 76.1481 19.38C76.7081 19.02 77.4281 18.84 78.3081 18.84C79.2681 18.84 80.1148 19.0666 80.8481 19.52C81.5814 19.9733 82.1548 20.5933 82.5681 21.38C82.9948 22.1666 83.2081 23.06 83.2081 24.06C83.2081 25.06 82.9948 25.9533 82.5681 26.74C82.1548 27.5133 81.5814 28.1266 80.8481 28.58C80.1148 29.02 79.2614 29.24 78.2881 29.24ZM77.9281 27.4C78.8348 27.4 79.5814 27.0933 80.1681 26.48C80.7547 25.8533 81.0481 25.04 81.0481 24.04C81.0481 23.3866 80.9148 22.8066 80.6481 22.3C80.3814 21.7933 80.0148 21.4 79.5481 21.12C79.0814 20.8266 78.5414 20.68 77.9281 20.68C77.0214 20.68 76.2748 20.9933 75.6881 21.62C75.1148 22.2466 74.8281 23.0533 74.8281 24.04C74.8281 25.04 75.1148 25.8533 75.6881 26.48C76.2748 27.0933 77.0214 27.4 77.9281 27.4Z" fill="#C6FF00"/>
<path d="M90.1411 29.24C89.1677 29.24 88.3011 29.0266 87.5411 28.6C86.7944 28.16 86.2077 27.5533 85.7811 26.78C85.3544 26.0066 85.1411 25.1066 85.1411 24.08C85.1411 23.04 85.3477 22.1266 85.7611 21.34C86.1877 20.5533 86.7744 19.94 87.5211 19.5C88.2811 19.06 89.1611 18.84 90.1611 18.84C91.1344 18.84 91.9811 19.06 92.7011 19.5C93.4211 19.9266 93.9811 20.5 94.3811 21.22C94.7811 21.94 94.9811 22.7333 94.9811 23.6C94.9811 23.7333 94.9744 23.88 94.9611 24.04C94.9611 24.1866 94.9544 24.3533 94.9411 24.54H87.2211C87.2877 25.5 87.6011 26.2333 88.1611 26.74C88.7344 27.2333 89.3944 27.48 90.1411 27.48C90.7411 27.48 91.2411 27.3466 91.6411 27.08C92.0544 26.8 92.3611 26.4266 92.5611 25.96H94.6811C94.4144 26.8933 93.8811 27.6733 93.0811 28.3C92.2944 28.9266 91.3144 29.24 90.1411 29.24ZM90.1411 20.58C89.4344 20.58 88.8077 20.7933 88.2611 21.22C87.7144 21.6333 87.3811 22.26 87.2611 23.1H92.8611C92.8211 22.3266 92.5477 21.7133 92.0411 21.26C91.5344 20.8066 90.9011 20.58 90.1411 20.58Z" fill="#C6FF00"/>
<path d="M101.701 29.24C100.741 29.24 99.8941 29.0133 99.1607 28.56C98.4274 28.1066 97.8541 27.4866 97.4407 26.7C97.0274 25.9133 96.8207 25.02 96.8207 24.02C96.8207 23.02 97.0274 22.1333 97.4407 21.36C97.8541 20.5733 98.4274 19.96 99.1607 19.52C99.9074 19.0666 100.761 18.84 101.721 18.84C102.507 18.84 103.194 18.9933 103.781 19.3C104.381 19.6066 104.847 20.04 105.181 20.6V14.6H107.301V29H105.401L105.181 27.46C104.861 27.9266 104.421 28.34 103.861 28.7C103.301 29.06 102.581 29.24 101.701 29.24ZM102.081 27.4C102.987 27.4 103.727 27.0866 104.301 26.46C104.887 25.8333 105.181 25.0266 105.181 24.04C105.181 23.04 104.887 22.2333 104.301 21.62C103.727 20.9933 102.987 20.68 102.081 20.68C101.174 20.68 100.427 20.9933 99.8407 21.62C99.2541 22.2333 98.9607 23.04 98.9607 24.04C98.9607 24.6933 99.0941 25.2733 99.3607 25.78C99.6274 26.2866 99.9941 26.6866 100.461 26.98C100.941 27.26 101.481 27.4 102.081 27.4Z" fill="#C6FF00"/>
<path d="M114.614 29.24C113.64 29.24 112.774 29.0266 112.014 28.6C111.267 28.16 110.68 27.5533 110.254 26.78C109.827 26.0066 109.614 25.1066 109.614 24.08C109.614 23.04 109.82 22.1266 110.234 21.34C110.66 20.5533 111.247 19.94 111.994 19.5C112.754 19.06 113.634 18.84 114.634 18.84C115.607 18.84 116.454 19.06 117.174 19.5C117.894 19.9266 118.454 20.5 118.854 21.22C119.254 21.94 119.454 22.7333 119.454 23.6C119.454 23.7333 119.447 23.88 119.434 24.04C119.434 24.1866 119.427 24.3533 119.414 24.54H111.694C111.76 25.5 112.074 26.2333 112.634 26.74C113.207 27.2333 113.867 27.48 114.614 27.48C115.214 27.48 115.714 27.3466 116.114 27.08C116.527 26.8 116.834 26.4266 117.034 25.96H119.154C118.887 26.8933 118.354 27.6733 117.554 28.3C116.767 28.9266 115.787 29.24 114.614 29.24ZM114.614 20.58C113.907 20.58 113.28 20.7933 112.734 21.22C112.187 21.6333 111.854 22.26 111.734 23.1H117.334C117.294 22.3266 117.02 21.7133 116.514 21.26C116.007 20.8066 115.374 20.58 114.614 20.58Z" fill="#C6FF00"/>
<path d="M125.613 29.24C124.36 29.24 123.327 28.9333 122.513 28.32C121.7 27.7066 121.233 26.8933 121.113 25.88H123.253C123.36 26.3333 123.613 26.7266 124.013 27.06C124.413 27.38 124.94 27.54 125.593 27.54C126.233 27.54 126.7 27.4066 126.993 27.14C127.287 26.8733 127.433 26.5666 127.433 26.22C127.433 25.7133 127.227 25.3733 126.813 25.2C126.413 25.0133 125.853 24.8466 125.133 24.7C124.573 24.58 124.013 24.42 123.453 24.22C122.907 24.02 122.447 23.74 122.073 23.38C121.713 23.0066 121.533 22.5066 121.533 21.88C121.533 21.0133 121.867 20.2933 122.533 19.72C123.2 19.1333 124.133 18.84 125.333 18.84C126.44 18.84 127.333 19.1066 128.013 19.64C128.707 20.1733 129.113 20.9266 129.233 21.9H127.193C127.127 21.4733 126.927 21.14 126.593 20.9C126.273 20.66 125.84 20.54 125.293 20.54C124.76 20.54 124.347 20.6533 124.053 20.88C123.76 21.0933 123.613 21.3733 123.613 21.72C123.613 22.0666 123.813 22.34 124.213 22.54C124.627 22.74 125.167 22.92 125.833 23.08C126.5 23.2266 127.113 23.4 127.673 23.6C128.247 23.7866 128.707 24.0666 129.053 24.44C129.4 24.8133 129.573 25.36 129.573 26.08C129.587 26.9866 129.233 27.74 128.513 28.34C127.807 28.94 126.84 29.24 125.613 29.24Z" fill="#C6FF00"/>
<path d="M133.088 17.2C132.688 17.2 132.354 17.08 132.088 16.84C131.834 16.5866 131.708 16.2733 131.708 15.9C131.708 15.5266 131.834 15.22 132.088 14.98C132.354 14.7266 132.688 14.6 133.088 14.6C133.488 14.6 133.814 14.7266 134.068 14.98C134.334 15.22 134.468 15.5266 134.468 15.9C134.468 16.2733 134.334 16.5866 134.068 16.84C133.814 17.08 133.488 17.2 133.088 17.2ZM132.028 29V19.08H134.148V29H132.028Z" fill="#C6FF00"/>
<path d="M141.006 25.96C140.486 25.96 140.006 25.9 139.566 25.78L138.706 26.62C138.853 26.7133 139.033 26.7933 139.246 26.86C139.46 26.9266 139.76 26.9866 140.146 27.04C140.533 27.0933 141.06 27.1466 141.726 27.2C143.046 27.32 144 27.64 144.586 28.16C145.173 28.6666 145.466 29.3466 145.466 30.2C145.466 30.7866 145.306 31.34 144.986 31.86C144.68 32.3933 144.193 32.82 143.526 33.14C142.873 33.4733 142.033 33.64 141.006 33.64C139.62 33.64 138.493 33.3733 137.626 32.84C136.773 32.32 136.346 31.5266 136.346 30.46C136.346 30.0466 136.453 29.6333 136.666 29.22C136.893 28.82 137.246 28.44 137.726 28.08C137.446 27.96 137.2 27.8333 136.986 27.7C136.786 27.5533 136.606 27.4066 136.446 27.26V26.78L138.166 25.02C137.393 24.3533 137.006 23.48 137.006 22.4C137.006 21.7466 137.16 21.1533 137.466 20.62C137.786 20.0733 138.246 19.64 138.846 19.32C139.446 19 140.166 18.84 141.006 18.84C141.566 18.84 142.086 18.92 142.566 19.08H146.266V20.48L144.506 20.58C144.826 21.1266 144.986 21.7333 144.986 22.4C144.986 23.0666 144.826 23.6666 144.506 24.2C144.2 24.7333 143.746 25.16 143.146 25.48C142.56 25.8 141.846 25.96 141.006 25.96ZM141.006 24.3C141.62 24.3 142.113 24.14 142.486 23.82C142.873 23.4866 143.066 23.02 143.066 22.42C143.066 21.8066 142.873 21.34 142.486 21.02C142.113 20.7 141.62 20.54 141.006 20.54C140.38 20.54 139.873 20.7 139.486 21.02C139.113 21.34 138.926 21.8066 138.926 22.42C138.926 23.02 139.113 23.4866 139.486 23.82C139.873 24.14 140.38 24.3 141.006 24.3ZM138.346 30.26C138.346 30.8333 138.6 31.26 139.106 31.54C139.613 31.8333 140.246 31.98 141.006 31.98C141.74 31.98 142.333 31.82 142.786 31.5C143.24 31.1933 143.466 30.78 143.466 30.26C143.466 29.8733 143.313 29.54 143.006 29.26C142.7 28.9933 142.12 28.8266 141.266 28.76C140.626 28.72 140.06 28.66 139.566 28.58C139.1 28.8333 138.78 29.1066 138.606 29.4C138.433 29.6933 138.346 29.98 138.346 30.26Z" fill="#C6FF00"/>
<path d="M148.157 29V19.08H150.037L150.197 20.82C150.504 20.2066 150.951 19.7266 151.537 19.38C152.137 19.02 152.824 18.84 153.597 18.84C154.797 18.84 155.737 19.2133 156.417 19.96C157.111 20.7066 157.457 21.82 157.457 23.3V29H155.357V23.52C155.357 21.6 154.571 20.64 152.997 20.64C152.211 20.64 151.557 20.92 151.037 21.48C150.531 22.04 150.277 22.84 150.277 23.88V29H148.157Z" fill="#C6FF00"/>
<defs>
<clipPath id="clip0_2196_2408">
<rect width="35" height="40" fill="white" transform="translate(0.000976562)"/>
</clipPath>
</defs>
</svg>
