<?xml version="1.0" standalone="no"?>
<!DOCTYPE svg PUBLIC "-//W3C//DTD SVG 20010904//EN"
 "http://www.w3.org/TR/2001/REC-SVG-20010904/DTD/svg10.dtd">
<svg version="1.0" xmlns="http://www.w3.org/2000/svg"
 width="960.000000pt" height="960.000000pt" viewBox="0 0 960.000000 960.000000"
 preserveAspectRatio="xMidYMid meet">
<metadata>
Created by potrace 1.14, written by Peter Selinger 2001-2017
</metadata>
<g transform="translate(0.000000,960.000000) scale(0.100000,-0.100000)"
fill="#000000" stroke="none">
<path d="M4764 9541 c-54 -32 -398 -231 -764 -443 -589 -342 -2410 -1398
-3097 -1796 -139 -81 -253 -149 -253 -152 0 -8 740 -405 750 -403 5 2 409 228
897 504 2088 1180 2667 1507 2991 1689 188 106 339 197 335 201 -8 7 -700 426
-739 447 -17 9 -35 2 -120 -47z"/>
<path d="M5880 8611 c-306 -178 -569 -331 -2725 -1581 -638 -369 -1164 -675
-1168 -680 -6 -5 509 -291 721 -399 25 -13 -158 -115 2362 1309 454 256 1064
600 1357 765 293 165 532 303 533 306 0 9 -748 459 -763 459 -6 -1 -149 -81
-317 -179z"/>
<path d="M7260 7767 c-523 -303 -1536 -891 -2150 -1247 -278 -161 -687 -399
-910 -528 -223 -129 -479 -278 -570 -330 -91 -52 -173 -101 -183 -107 -15 -11
31 -39 354 -214 204 -110 375 -201 379 -201 5 0 284 156 622 346 899 508 2284
1291 2991 1689 339 192 616 353 615 357 -3 8 -746 458 -757 458 -3 0 -179
-100 -391 -223z"/>
<path d="M8620 6981 c-206 -113 -383 -211 -392 -216 -16 -10 -16 -77 -3 -1130
8 -616 19 -1617 25 -2225 7 -608 15 -1193 18 -1301 l7 -196 363 221 362 221 0
2417 c0 1330 -1 2418 -2 2417 -2 0 -172 -94 -378 -208z"/>
<path d="M606 6169 c4 -200 9 -393 13 -429 l6 -65 2095 -1222 c1152 -672 2096
-1221 2098 -1219 9 9 27 872 19 883 -5 7 -39 29 -75 49 -69 38 -616 349 -1882
1069 -399 227 -1056 600 -1460 830 -404 229 -754 429 -778 442 l-43 25 7 -363z"/>
<path d="M7162 6147 l-383 -212 6 -350 c3 -192 12 -939 21 -1660 27 -2432 32
-2827 36 -2830 1 -1 166 97 366 219 l362 221 0 2412 c0 1924 -3 2413 -12 2412
-7 -1 -185 -96 -396 -212z"/>
<path d="M5738 5338 l-387 -213 4 -200 c3 -110 10 -648 15 -1195 13 -1235 40
-3443 43 -3446 1 -1 165 97 365 219 l362 221 0 2413 c0 1327 -3 2413 -7 2413
-5 0 -182 -96 -395 -212z"/>
<path d="M605 4549 c3 -178 8 -369 11 -424 l6 -100 2095 -1223 c1153 -672
2098 -1221 2100 -1218 2 2 10 199 17 438 9 308 9 436 2 445 -6 6 -243 143
-526 304 -283 160 -742 421 -1020 579 -2232 1268 -2658 1510 -2673 1516 -17 6
-18 -10 -12 -317z"/>
<path d="M605 2978 c3 -178 8 -369 11 -425 l6 -102 1461 -853 c804 -469 1748
-1020 2097 -1223 l635 -371 6 79 c4 44 9 231 13 416 4 185 9 348 12 363 5 25
-7 33 -333 219 -186 105 -862 490 -1503 854 -641 364 -1410 802 -1710 972
-691 393 -691 393 -697 393 -2 0 -2 -145 2 -322z"/>
</g>
</svg>
