<svg width="40" height="40" viewBox="0 0 40 40" fill="none" xmlns="http://www.w3.org/2000/svg">
<rect width="40" height="40" transform="matrix(1 0 0 -1 0 40)" fill="white" fill-opacity="0.01" style="mix-blend-mode:multiply"/>
<path d="M23.15 2.5C22.1558 2.50087 21.2026 2.89653 20.5 3.6L3.6 20.4875C2.89654 21.1901 2.50088 22.1433 2.5 23.1375V33.75C2.5 34.7446 2.89509 35.6984 3.59835 36.4017C4.30161 37.1049 5.25544 37.5 6.25 37.5H16.8625C17.8567 37.4991 18.8099 37.1035 19.5125 36.4L36.4 19.5125C36.7496 19.1641 37.027 18.7501 37.2163 18.2943C37.4055 17.8385 37.503 17.3498 37.503 16.8563C37.503 16.3627 37.4055 15.874 37.2163 15.4182C37.027 14.9624 36.7496 14.5484 36.4 14.2L25.8 3.6C25.0974 2.89653 24.1442 2.50087 23.15 2.5ZM6.25 35C5.91848 35 5.60054 34.8683 5.36612 34.6339C5.1317 34.3995 5 34.0815 5 33.75V23.1375C5.00069 22.9721 5.03419 22.8085 5.09856 22.6562C5.16293 22.5038 5.25689 22.3658 5.375 22.25L22.2625 5.3625C22.4967 5.12969 22.8135 4.99901 23.1437 4.99901C23.474 4.99901 23.7908 5.12969 24.025 5.3625L34.6375 15.975C34.8703 16.2092 35.001 16.526 35.001 16.8563C35.001 17.1865 34.8703 17.5033 34.6375 17.7375L17.75 34.625C17.6342 34.7431 17.4962 34.8371 17.3438 34.9014C17.1915 34.9658 17.0279 34.9993 16.8625 35H6.25Z" fill="#ACABA4"/>
<path d="M12.5 22.5C11.5111 22.5 10.5444 22.7932 9.72215 23.3427C8.8999 23.8921 8.25904 24.673 7.8806 25.5866C7.50216 26.5002 7.40315 27.5055 7.59607 28.4755C7.789 29.4454 8.2652 30.3363 8.96447 31.0355C9.66373 31.7348 10.5546 32.211 11.5245 32.4039C12.4945 32.5969 13.4998 32.4978 14.4134 32.1194C15.327 31.741 16.1079 31.1001 16.6573 30.2779C17.2068 29.4556 17.5 28.4889 17.5 27.5C17.5 26.1739 16.9732 24.9021 16.0355 23.9645C15.0979 23.0268 13.8261 22.5 12.5 22.5ZM12.5 30C12.0055 30 11.5222 29.8534 11.1111 29.5787C10.7 29.304 10.3795 28.9135 10.1903 28.4567C10.0011 27.9999 9.95157 27.4972 10.048 27.0123C10.1445 26.5273 10.3826 26.0819 10.7322 25.7322C11.0819 25.3826 11.5273 25.1445 12.0123 25.048C12.4972 24.9516 12.9999 25.0011 13.4567 25.1903C13.9135 25.3795 14.304 25.7 14.5787 26.1111C14.8534 26.5222 15 27.0055 15 27.5C15 28.163 14.7366 28.7989 14.2678 29.2678C13.7989 29.7366 13.163 30 12.5 30Z" fill="#ACABA4"/>
</svg>
