<svg width="125" height="16" viewBox="0 0 125 16" fill="none" xmlns="http://www.w3.org/2000/svg">
<path d="M114.891 15.0004V0.860352H124.631V2.80035H117.01V7.04035H123.751V8.96035H117.01V13.0604H124.631V15.0004H114.891Z" fill="#C6FF00"/>
<path d="M100.437 15.0004V0.860352H105.557C107.037 0.860352 108.277 1.15368 109.277 1.74035C110.291 2.31368 111.051 3.13369 111.557 4.20035C112.077 5.25368 112.337 6.50035 112.337 7.94035C112.337 9.38035 112.084 10.627 111.577 11.6804C111.071 12.7337 110.311 13.5537 109.297 14.1404C108.297 14.7137 107.057 15.0004 105.577 15.0004H100.437ZM102.557 13.0604H105.477C106.571 13.0604 107.464 12.847 108.157 12.4204C108.851 11.9804 109.364 11.3804 109.697 10.6204C110.031 9.84702 110.197 8.95368 110.197 7.94035C110.197 6.95368 110.031 6.07368 109.697 5.30035C109.377 4.52702 108.871 3.92035 108.177 3.48035C107.497 3.02702 106.617 2.80035 105.537 2.80035H102.557V13.0604Z" fill="#C6FF00"/>
<path d="M91.1244 15.1602C89.671 15.1602 88.4377 14.8535 87.4244 14.2402C86.4244 13.6135 85.6644 12.7535 85.1444 11.6602C84.6244 10.5669 84.3644 9.32686 84.3644 7.9402C84.3644 6.5402 84.6244 5.29353 85.1444 4.2002C85.6644 3.10686 86.431 2.25353 87.4444 1.6402C88.4577 1.01353 89.6911 0.700195 91.1444 0.700195C92.6111 0.700195 93.8444 1.00686 94.8444 1.6202C95.8444 2.23353 96.6044 3.08686 97.1244 4.1802C97.6444 5.27353 97.9044 6.5202 97.9044 7.9202C97.9044 9.30686 97.6444 10.5469 97.1244 11.6402C96.6044 12.7335 95.8377 13.5935 94.8244 14.2202C93.8244 14.8469 92.591 15.1602 91.1244 15.1602ZM91.1444 13.2202C92.2111 13.2202 93.0844 12.9735 93.7644 12.4802C94.4444 11.9869 94.9444 11.3402 95.2644 10.5402C95.5844 9.7402 95.7444 8.87353 95.7444 7.9402C95.7444 7.23353 95.6511 6.5602 95.4644 5.9202C95.2911 5.2802 95.0177 4.71353 94.6444 4.2202C94.2711 3.72686 93.7911 3.3402 93.2044 3.0602C92.6177 2.7802 91.9311 2.6402 91.1444 2.6402C90.0911 2.6402 89.2177 2.88686 88.5244 3.3802C87.8444 3.87353 87.3377 4.5202 87.0044 5.3202C86.671 6.1202 86.5044 6.99353 86.5044 7.9402C86.5044 8.87353 86.6644 9.7402 86.9844 10.5402C87.3177 11.3402 87.8244 11.9869 88.5044 12.4802C89.1977 12.9735 90.0777 13.2202 91.1444 13.2202Z" fill="#C6FF00"/>
<path d="M76.687 15.1602C75.2337 15.1602 74.0137 14.8535 73.027 14.2402C72.0537 13.6269 71.3204 12.7802 70.827 11.7002C70.3337 10.6202 70.087 9.37353 70.087 7.9602C70.087 6.54686 70.3337 5.29353 70.827 4.2002C71.3337 3.10686 72.0737 2.25353 73.047 1.6402C74.0337 1.01353 75.2537 0.700195 76.707 0.700195C77.7604 0.700195 78.6804 0.873529 79.467 1.2202C80.2537 1.55353 80.887 2.03353 81.367 2.66019C81.8604 3.27353 82.187 4.00686 82.347 4.8602H80.267C80.067 4.1802 79.6604 3.6402 79.047 3.2402C78.4337 2.8402 77.647 2.6402 76.687 2.6402C75.6204 2.6402 74.7604 2.88686 74.107 3.3802C73.467 3.87353 73.0004 4.5202 72.707 5.3202C72.4137 6.10686 72.267 6.9602 72.267 7.8802C72.267 8.82686 72.4204 9.70686 72.727 10.5202C73.0337 11.3335 73.5204 11.9869 74.187 12.4802C74.8537 12.9735 75.707 13.2202 76.747 13.2202C77.387 13.2202 77.9537 13.1335 78.447 12.9602C78.9404 12.7735 79.3537 12.5135 79.687 12.1802C80.0204 11.8335 80.247 11.4335 80.367 10.9802H82.587C82.4137 11.8469 82.0604 12.5935 81.527 13.2202C80.9937 13.8469 80.3204 14.3269 79.507 14.6602C78.6937 14.9935 77.7537 15.1602 76.687 15.1602Z" fill="#C6FF00"/>
<path d="M55.8866 15.0004V0.860352H58.3466L65.4466 11.9004V0.860352H67.5466V15.0004H65.1466L58.0066 4.02035V15.0004H55.8866Z" fill="white"/>
<path d="M43.0741 15.0004V0.860352H45.1941V7.16035H47.2341L51.5541 0.860352H53.9741L49.0741 7.82035L53.9941 15.0004H51.5141L47.3941 9.10035H45.1941V15.0004H43.0741Z" fill="#FD532F"/>
<path d="M34.7534 15.1602C33.3001 15.1602 32.0801 14.8535 31.0934 14.2402C30.1201 13.6269 29.3868 12.7802 28.8934 11.7002C28.4001 10.6202 28.1534 9.37353 28.1534 7.9602C28.1534 6.54686 28.4001 5.29353 28.8934 4.2002C29.4001 3.10686 30.1401 2.25353 31.1134 1.6402C32.1001 1.01353 33.3201 0.700195 34.7734 0.700195C35.8268 0.700195 36.7468 0.873529 37.5334 1.2202C38.3201 1.55353 38.9534 2.03353 39.4334 2.66019C39.9268 3.27353 40.2534 4.00686 40.4134 4.8602H38.3334C38.1334 4.1802 37.7268 3.6402 37.1134 3.2402C36.5001 2.8402 35.7134 2.6402 34.7534 2.6402C33.6868 2.6402 32.8268 2.88686 32.1734 3.3802C31.5334 3.87353 31.0668 4.5202 30.7734 5.3202C30.4801 6.10686 30.3334 6.9602 30.3334 7.8802C30.3334 8.82686 30.4868 9.70686 30.7934 10.5202C31.1001 11.3335 31.5868 11.9869 32.2534 12.4802C32.9201 12.9735 33.7734 13.2202 34.8134 13.2202C35.4534 13.2202 36.0201 13.1335 36.5134 12.9602C37.0068 12.7735 37.4201 12.5135 37.7534 12.1802C38.0868 11.8335 38.3134 11.4335 38.4334 10.9802H40.6534C40.4801 11.8469 40.1268 12.5935 39.5934 13.2202C39.0601 13.8469 38.3868 14.3269 37.5734 14.6602C36.7601 14.9935 35.8201 15.1602 34.7534 15.1602Z" fill="#FD532F"/>
<path d="M19.4838 15.1602C18.0304 15.1602 16.7971 14.8535 15.7838 14.2402C14.7838 13.6135 14.0238 12.7535 13.5038 11.6602C12.9838 10.5669 12.7238 9.32686 12.7238 7.9402C12.7238 6.5402 12.9838 5.29353 13.5038 4.2002C14.0238 3.10686 14.7904 2.25353 15.8038 1.6402C16.8171 1.01353 18.0504 0.700195 19.5038 0.700195C20.9704 0.700195 22.2038 1.00686 23.2038 1.6202C24.2038 2.23353 24.9638 3.08686 25.4838 4.1802C26.0038 5.27353 26.2638 6.5202 26.2638 7.9202C26.2638 9.30686 26.0038 10.5469 25.4838 11.6402C24.9638 12.7335 24.1971 13.5935 23.1838 14.2202C22.1838 14.8469 20.9504 15.1602 19.4838 15.1602ZM19.5038 13.2202C20.5704 13.2202 21.4438 12.9735 22.1238 12.4802C22.8038 11.9869 23.3038 11.3402 23.6238 10.5402C23.9438 9.7402 24.1038 8.87353 24.1038 7.9402C24.1038 7.23353 24.0104 6.5602 23.8238 5.9202C23.6504 5.2802 23.3771 4.71353 23.0038 4.2202C22.6304 3.72686 22.1504 3.3402 21.5638 3.0602C20.9771 2.7802 20.2904 2.6402 19.5038 2.6402C18.4504 2.6402 17.5771 2.88686 16.8838 3.3802C16.2038 3.87353 15.6971 4.5202 15.3638 5.3202C15.0304 6.1202 14.8638 6.99353 14.8638 7.9402C14.8638 8.87353 15.0238 9.7402 15.3438 10.5402C15.6771 11.3402 16.1838 11.9869 16.8638 12.4802C17.5571 12.9735 18.4371 13.2202 19.5038 13.2202Z" fill="#FD532F"/>
<path d="M0.144409 15.0004V0.860352H5.58441C6.34441 0.860352 7.03774 0.940351 7.66441 1.10035C8.29108 1.24702 8.83774 1.49368 9.30441 1.84035C9.77108 2.17368 10.1311 2.62702 10.3844 3.20035C10.6377 3.77368 10.7644 4.48035 10.7644 5.32035C10.7644 6.08035 10.6311 6.73368 10.3644 7.28035C10.0977 7.82702 9.73108 8.28035 9.26441 8.64035C8.79774 9.00035 8.27108 9.27369 7.68441 9.46035L10.7044 15.0004H8.36441L5.56441 9.80035H2.26441V15.0004H0.144409ZM2.26441 7.90035H5.14441C5.62441 7.90035 6.07108 7.86702 6.48441 7.80035C6.91108 7.72035 7.28441 7.58702 7.60441 7.40035C7.92441 7.20035 8.17108 6.93368 8.34441 6.60035C8.53108 6.25368 8.62441 5.81368 8.62441 5.28035C8.63774 4.66702 8.51774 4.18035 8.26441 3.82035C8.02441 3.44702 7.66441 3.18702 7.18441 3.04035C6.70441 2.88035 6.12441 2.80035 5.44441 2.80035H2.26441V7.90035Z" fill="#FD532F"/>
</svg>
